# Blender v2.76 (sub 0) OBJ File: ''
# www.blender.org
mtllib Base.mtl
o mmGroup0
v -6.490440 1.063105 36.366692
v -6.490440 2.063105 36.366692
v -6.490440 1.063104 49.366692
v -6.490440 2.063103 49.366692
v 2.509560 2.063105 36.366692
v 2.509560 1.063105 36.366692
v 2.509560 2.063103 49.366692
v 2.509560 1.063104 49.366692
v 35.009560 2.063105 36.366692
v 35.009560 1.063105 36.366692
v -38.990440 1.063114 -37.633308
v 2.509560 1.063114 -37.633308
v -38.990440 2.063114 -37.633308
v 2.509560 2.063114 -37.633308
v -29.990440 1.063107 27.366692
v 26.009560 1.063107 27.366692
v -51.990440 1.063105 36.366692
v -38.990440 1.063107 27.366692
v -34.490440 1.063109 -0.633308
v -29.990440 1.063112 -28.633308
v -38.990440 1.063111 -13.633308
v -6.490440 1.063112 -28.633308
v 2.509560 1.063110 -7.633308
v -6.490440 1.063109 1.366692
v -1.990440 1.063109 -0.633308
v 26.009560 1.063109 1.366692
v 26.009560 1.063109 -0.633308
v 35.009560 1.063109 1.366692
v 48.009560 1.063109 1.366692
v 48.009560 1.063110 -7.633308
v 35.009560 1.063110 -7.633308
v 26.009560 1.063110 -7.633308
v 35.009560 1.063115 -50.633308
v 26.009560 1.063115 -50.633308
v -38.990440 1.063112 -22.633308
v -51.990440 1.063111 -13.633308
v -51.990440 1.063112 -22.633308
v -51.990440 1.063107 27.366692
v 26.009560 2.063108 1.366692
v -6.490440 2.063108 1.366692
v -6.490440 2.063112 -28.633308
v -29.990440 2.063112 -28.633308
v 2.509560 2.063110 -7.633308
v -38.990440 2.063112 -22.633308
v -38.990440 2.063110 -13.633308
v -38.990440 2.063107 27.366692
v -51.990440 2.063107 27.366692
v 26.009560 2.063107 27.366692
v -29.990440 2.063107 27.366692
v 35.009560 2.063108 1.366692
v 26.009560 2.063110 -7.633308
v 48.009560 2.063108 1.366692
v 35.009560 2.063110 -7.633308
v 48.009560 2.063110 -7.633308
v 35.009560 2.063116 -50.633308
v -51.990440 2.063105 36.366692
v 26.009560 2.063116 -50.633308
v -51.990440 2.063112 -22.633308
v -51.990440 2.063110 -13.633308
v 48.009560 2.063116 -50.633308
v 48.009560 0.063115 -50.633308
v 48.009560 0.063109 -0.633308
v 48.009560 0.063104 49.366692
v 48.009560 2.063103 49.366692
v -1.990440 0.063104 49.366692
v -51.990440 0.063104 49.366692
v -51.990440 2.063103 49.366692
v -12.990440 2.063116 -50.633308
v -51.990440 2.063116 -50.633308
v -1.990440 0.063115 -50.633308
v -1.990440 0.063109 -0.633308
v -51.990440 0.063109 -0.633308
v -51.990440 0.063115 -50.633308
vt 0.222535 0.523894
vt 0.064222 0.569123
vt 0.064223 0.523891
vt 0.854587 0.290534
vt 0.846671 0.478646
vt 0.846582 0.290537
vt 0.879409 0.374569
vt 0.887414 0.374565
vt 0.879459 0.478630
vt 0.887464 0.478627
vt 0.887606 0.374565
vt 0.895611 0.374561
vt 0.887655 0.478627
vt 0.895660 0.478623
vt 0.805687 0.478665
vt 0.805564 0.218510
vt 0.813692 0.478662
vt 0.813569 0.218506
vt 0.780983 0.478674
vt 0.780939 0.146502
vt 0.788988 0.478673
vt 0.788944 0.146501
vt 0.095388 0.744905
vt 0.170809 0.715665
vt 0.275397 0.744165
vt 0.024552 0.716266
vt 0.066458 0.745024
vt 0.081294 0.834969
vt 0.096129 0.924914
vt 0.067000 0.876816
vt 0.171668 0.924603
vt 0.067318 0.953963
vt 0.200717 0.953414
vt 0.200320 0.856981
vt 0.171271 0.828170
vt 0.185763 0.834539
vt 0.275741 0.827740
vt 0.275767 0.834169
vt 0.304671 0.827621
vt 0.304208 0.715116
vt 0.199739 0.715546
vt 0.199567 0.673758
vt 0.170637 0.673877
vt 0.346458 0.827449
vt 0.346577 0.856379
vt 0.304790 0.856551
vt 0.275860 0.856670
vt 0.305358 0.994772
vt 0.276428 0.994891
vt 0.067119 0.905746
vt 0.025213 0.876988
vt 0.025332 0.905918
vt 0.024671 0.745196
vt 0.821765 0.218502
vt 0.821889 0.478658
vt 0.813761 0.218506
vt 0.813884 0.478662
vt 0.854780 0.290534
vt 0.862784 0.290530
vt 0.854868 0.478642
vt 0.862873 0.478638
vt 0.829972 0.238519
vt 0.830086 0.478654
vt 0.821967 0.238523
vt 0.822081 0.478658
vt 0.863009 0.358568
vt 0.871013 0.358564
vt 0.863065 0.478638
vt 0.871070 0.478634
vt 0.797143 0.150475
vt 0.797298 0.478669
vt 0.789138 0.150479
vt 0.789294 0.478673
vt 0.904000 0.374557
vt 0.912004 0.374554
vt 0.904049 0.478619
vt 0.912054 0.478615
vt 0.747793 0.030373
vt 0.748005 0.478693
vt 0.739789 0.030377
vt 0.740002 0.478697
vt 0.805363 0.198503
vt 0.805495 0.478666
vt 0.797358 0.198507
vt 0.797490 0.478669
vt 0.854676 0.478642
vt 0.879267 0.478631
vt 0.871262 0.478634
vt 0.879218 0.374569
vt 0.871213 0.374573
vt 0.830278 0.478654
vt 0.830164 0.238519
vt 0.838283 0.478650
vt 0.838169 0.238515
vt 0.920250 0.478611
vt 0.912246 0.478615
vt 0.920201 0.374549
vt 0.912196 0.374553
vt 0.772786 0.478681
vt 0.772623 0.134478
vt 0.780791 0.478677
vt 0.780628 0.134474
vt 0.838475 0.478650
vt 0.838376 0.270529
vt 0.846479 0.478646
vt 0.846381 0.270525
vt 0.764225 0.114458
vt 0.764398 0.478685
vt 0.756221 0.114462
vt 0.756393 0.478689
vt 0.772594 0.478681
vt 0.764590 0.478685
vt 0.772431 0.134478
vt 0.764426 0.134482
vt 0.895803 0.374561
vt 0.903808 0.374557
vt 0.895852 0.478623
vt 0.903857 0.478619
vt 0.755989 0.030370
vt 0.756201 0.478689
vt 0.747985 0.030373
vt 0.748197 0.478692
vt 0.920393 0.374549
vt 0.928398 0.374545
vt 0.920442 0.478611
vt 0.928447 0.478607
vt 0.419119 0.318613
vt 0.415640 0.318613
vt 0.419121 0.169005
vt 0.412163 0.169005
vt 0.412161 0.342967
vt 0.415639 0.349924
vt 0.412161 0.516939
vt 0.419119 0.516939
vt 0.419119 0.349924
vt 0.253847 0.523895
vt 0.253847 0.520415
vt 0.412161 0.523897
vt 0.238191 0.516936
vt 0.222535 0.520415
vt 0.064223 0.516933
vt 0.222534 0.569126
vt 0.012037 0.297729
vt 0.057269 0.297730
vt 0.012034 0.440383
vt 0.057266 0.440384
vt 0.464352 0.349924
vt 0.464352 0.471706
vt 0.577435 0.516939
vt 0.378245 0.588290
vt 0.265163 0.543057
vt 0.378245 0.543057
vt 0.253855 0.012434
vt 0.335618 0.012436
vt 0.253853 0.116812
vt 0.335615 0.162044
vt 0.199923 0.162042
vt 0.109462 0.116809
vt 0.064230 0.162040
vt 0.064232 0.064619
vt 0.109463 0.064620
vt 0.713757 0.943481
vt 0.713756 0.727106
vt 0.804557 0.827566
vt 0.804557 0.943481
vt 0.930132 0.827566
vt 0.930132 0.727106
vt 0.464350 0.318614
vt 0.464352 0.169005
vt 0.238195 0.169001
vt 0.238193 0.342967
vt 0.064227 0.342965
vt 0.064230 0.168998
vt 0.057269 0.266417
vt 0.057271 0.168998
vt 0.060749 0.266417
vt 0.060748 0.297730
vt 0.060745 0.440384
vt 0.060745 0.471699
vt 0.057264 0.516932
vt 0.057265 0.471699
vt 0.366928 0.162045
vt 0.412163 0.162045
vt 0.366928 0.165524
vt 0.335615 0.165524
vn 0.010900 0.999200 0.038500
vn -0.011000 0.999200 -0.038400
vn -0.064100 0.972400 0.224500
vn 0.025000 0.999300 0.027400
vn -0.061100 0.997000 0.047900
vn 0.085600 0.996100 0.023400
vn 0.010600 0.999300 -0.037000
vn 0.043400 0.987400 -0.152000
vn 0.113300 0.510200 0.852500
vn -0.030600 0.996600 -0.076700
vn -0.052500 0.990000 -0.131200
vn -0.025600 0.998700 0.044800
vn -0.042600 0.766700 0.640600
vn -0.016700 0.999400 -0.031100
vn -0.114300 0.992000 -0.053000
vn 0.020800 0.998100 0.057500
vn -0.046200 0.990700 0.127800
vn 0.018700 0.998500 0.051600
vn -0.021700 0.999700 0.015000
vn -0.074500 0.996500 0.037200
vn 0.018200 0.996800 0.078300
vn -0.077900 0.986000 -0.147700
vn 0.064500 0.997700 0.020400
vn 0.000000 1.000000 0.000000
vn -0.064700 0.997500 -0.027100
vn 0.143000 0.988700 -0.045300
vn 0.053200 0.997700 -0.041700
vn 0.082300 0.980500 -0.178300
vn 0.090800 0.994200 -0.056800
vn -0.039700 0.999100 -0.014700
vn 0.861100 0.496300 -0.110300
vn 0.625700 0.778800 0.043300
vn -0.131400 0.990500 0.039800
vn -0.055400 0.996500 -0.061800
vn 0.101700 0.915100 -0.390200
vn 0.066500 0.997400 0.028800
vn -0.361900 0.930800 -0.051700
vn -0.766400 0.627100 0.139400
vn -0.835200 0.536900 0.119300
vn 0.030600 0.996600 -0.076700
vn 0.013900 0.999900 -0.007500
vn 0.042500 0.998500 -0.033200
vn -0.055300 0.998200 -0.023300
vn -0.042500 0.998500 0.033300
vn 0.076000 0.988400 0.131800
vn 0.076700 0.996800 -0.024300
vn 0.076700 0.996800 0.024300
vn -0.076700 0.996800 0.024400
vn 0.022600 0.999400 0.024300
vn -0.020100 0.999000 0.040400
vn -0.151800 0.986800 -0.056400
vn 0.044400 0.998900 -0.012100
vn -0.076600 0.996800 0.023200
vn 0.038400 0.999000 0.023200
vn -0.076700 0.997000 -0.011600
vn 0.056600 0.998100 -0.025600
vn -0.050000 0.998500 0.023200
vn -0.076700 0.996800 -0.024300
vn 0.224300 0.972200 -0.067800
vn 0.027200 -0.999500 -0.016900
vn 0.014600 -0.999900 0.000000
vn 0.058200 -0.996700 0.056200
vn 0.116900 0.986900 0.110800
vn -0.000000 -0.999900 0.014600
vn -0.017000 -0.999500 0.028200
vn 0.000000 0.983700 -0.179800
vn -0.095600 0.991500 -0.088800
vn -0.000000 -0.999600 -0.028900
vn 0.000000 -1.000000 -0.000000
vn -0.020000 -0.999800 -0.000000
vn -0.042200 -0.996600 -0.071000
usemtl Material.001
s 1
f 4/1/1 56/2/2 67/3/3
usemtl Material.001_Material.001_Normal
f 51/4/4 23/5/5 32/6/6
usemtl Material.001_NONE
f 1/7/7 2/8/8 3/9/9
f 3/9/9 2/8/8 4/10/1
f 5/11/10 6/12/11 7/13/12
f 7/13/12 6/12/11 8/14/13
f 5/15/10 9/16/14 6/17/11
f 6/17/11 9/16/14 10/18/15
f 11/19/16 12/20/17 13/21/18
f 13/21/18 12/20/17 14/22/19
f 15/23/20 1/24/7 16/25/21
f 15/23/20 17/26/22 1/24/7
f 15/23/20 18/27/23 17/26/22
f 15/23/20 19/28/24 18/27/23
f 15/23/20 20/29/25 19/28/24
f 19/28/24 20/29/25 21/30/26
f 18/27/23 19/28/24 21/30/26
f 22/31/27 11/32/16 20/29/25
f 22/31/27 12/33/17 11/32/16
f 22/31/27 23/34/5 12/33/17
f 22/31/27 24/35/28 23/34/5
f 23/34/5 24/35/28 25/36/24
f 26/37/29 25/36/24 24/35/28
f 26/37/29 23/34/5 25/36/24
f 26/37/29 27/38/24 23/34/5
f 26/37/29 28/39/30 27/38/24
f 26/37/29 16/25/21 28/39/30
f 28/39/30 16/25/21 10/40/15
f 10/40/15 16/25/21 6/41/11
f 6/41/11 16/25/21 1/24/7
f 8/42/13 1/24/7 3/43/9
f 8/42/13 6/41/11 1/24/7
f 29/44/31 30/45/32 28/39/30
f 28/39/30 30/45/32 31/46/33
f 27/38/24 31/46/33 32/47/6
f 23/34/5 27/38/24 32/47/6
f 31/46/33 33/48/34 32/47/6
f 32/47/6 33/48/34 34/49/35
f 11/32/16 35/50/36 20/29/25
f 20/29/25 35/50/36 21/30/26
f 21/30/26 35/50/36 36/51/37
f 36/51/37 35/50/36 37/52/38
f 18/27/23 38/53/39 17/26/22
f 28/39/30 31/46/33 27/38/24
f 26/54/29 24/55/28 39/56/40
f 39/56/40 24/55/28 40/57/41
f 41/58/42 22/59/27 42/60/43
f 42/60/43 22/59/27 20/61/25
f 12/62/17 23/63/5 14/64/19
f 14/64/19 23/63/5 43/65/44
f 11/66/16 13/67/18 35/68/36
f 35/68/36 13/67/18 44/69/45
f 45/70/46 46/71/47 21/72/26
f 21/72/26 46/71/47 18/73/23
f 18/74/23 46/75/47 38/76/39
f 38/76/39 46/75/47 47/77/48
f 48/78/49 49/79/50 16/80/21
f 16/80/21 49/79/50 15/81/20
f 28/82/30 10/83/15 50/84/51
f 50/84/51 10/83/15 9/85/14
f 43/86/44 23/5/5 51/4/4
f 28/87/30 50/88/51 29/89/31
f 29/89/31 50/88/51 52/90/52
f 24/91/28 22/92/27 40/93/41
f 40/93/41 22/92/27 41/94/42
f 53/95/53 31/96/33 54/97/54
f 54/97/54 31/96/33 30/98/32
f 53/99/53 55/100/55 31/101/33
f 31/101/33 55/100/55 33/102/34
f 16/103/21 26/104/29 48/105/49
f 48/105/49 26/104/29 39/106/40
f 1/107/7 17/108/22 2/109/8
f 2/109/8 17/108/22 56/110/2
f 51/111/4 32/112/6 57/113/56
f 57/113/56 32/112/6 34/114/35
f 35/115/36 44/116/45 37/117/38
f 37/117/38 44/116/45 58/118/57
f 20/119/25 15/120/20 42/121/43
f 42/121/43 15/120/20 49/122/50
f 45/123/46 21/124/26 59/125/58
f 59/125/58 21/124/26 36/126/37
f 54/127/54 30/128/32 60/129/59
f 60/129/59 30/128/32 61/130/60
f 61/130/60 30/128/32 62/131/61
f 62/131/61 30/128/32 29/132/31
f 63/133/62 29/132/31 64/134/63
f 63/133/62 62/131/61 29/132/31
f 29/132/31 52/135/52 64/134/63
f 7/136/12 8/137/13 64/138/63
f 64/138/63 8/137/13 63/133/62
f 63/133/62 8/137/13 65/139/64
f 65/139/64 8/137/13 3/140/9
f 66/141/65 3/140/9 67/3/3
f 66/141/65 65/139/64 3/140/9
f 3/140/9 4/1/1 67/3/3
f 2/142/8 56/2/2 4/1/1
f 45/143/46 59/144/58 46/145/47
f 46/145/47 59/144/58 47/146/48
f 50/147/51 9/148/14 52/135/52
f 52/135/52 9/148/14 64/134/63
f 64/134/63 9/148/14 7/149/12
f 7/150/12 9/151/14 5/152/10
f 43/153/44 51/154/4 14/155/19
f 14/155/19 51/154/4 57/156/56
f 68/157/66 14/155/19 57/156/56
f 68/157/66 13/158/18 14/155/19
f 68/157/66 69/159/67 13/158/18
f 13/158/18 69/159/67 58/160/57
f 44/161/45 13/158/18 58/160/57
f 42/162/43 49/163/50 40/164/41
f 41/165/42 42/162/43 40/164/41
f 39/166/40 40/164/41 48/167/49
f 48/167/49 40/164/41 49/163/50
f 53/168/53 54/127/54 55/169/55
f 55/169/55 54/127/54 60/129/59
f 70/170/68 61/130/60 71/171/69
f 72/172/70 71/171/69 66/141/65
f 72/172/70 70/170/68 71/171/69
f 72/172/70 73/173/71 70/170/68
f 63/133/62 65/139/64 62/131/61
f 62/131/61 65/139/64 71/171/69
f 61/130/60 62/131/61 71/171/69
f 65/139/64 66/141/65 71/171/69
f 58/174/57 69/175/67 37/176/38
f 37/176/38 69/175/67 73/173/71
f 72/172/70 37/176/38 73/173/71
f 72/172/70 36/177/37 37/176/38
f 72/172/70 38/178/39 36/177/37
f 72/172/70 66/141/65 38/178/39
f 38/178/39 66/141/65 17/179/22
f 17/179/22 66/141/65 67/180/3
f 56/181/2 17/179/22 67/180/3
f 47/146/48 59/144/58 38/178/39
f 38/178/39 59/144/58 36/177/37
f 55/182/55 60/183/59 33/184/34
f 33/184/34 60/183/59 61/130/60
f 34/185/35 61/130/60 70/170/68
f 68/157/66 70/170/68 73/173/71
f 69/159/67 68/157/66 73/173/71
f 33/184/34 61/130/60 34/185/35
f 34/185/35 70/170/68 68/157/66
f 57/156/56 34/185/35 68/157/66
